<?xml version="1.0" encoding="UTF-8"?>
<svg id="Layer_1" data-name="Layer 1" xmlns="http://www.w3.org/2000/svg" viewBox="0 0 734.64 86.2">
  <defs>
    <style>
      .cls-1 {
        fill: #4c3718;
      }
    </style>
  </defs>
  <polygon class="cls-1" points="77.52 1.71 49.55 1.71 28.2 26.83 23.52 33.34 23.06 33.34 23.4 23.52 23.4 1.71 0 1.71 0 84.48 23.4 84.48 23.4 62.79 30.25 55.26 49.66 84.48 77.75 84.48 46.47 36.99 77.52 1.71"/>
  <path class="cls-1" d="M154.58,67.13c-2.97,0-4-.91-4-4.34v-29.23c0-22.95-10.39-33.56-34.02-33.56-21.92,0-35.85,10.39-36.99,27.74h23.75c.8-5.82,5.25-9.48,12.44-9.48s11.76,4.11,11.76,11.42v4.45l-18.49,1.48c-23.86,1.94-33.34,10.85-33.34,26.03s12.33,24.55,28.88,24.55c11.65,0,20.66-5.02,26.26-12.79h.46v.57c0,8.11,5.48,11.87,17.12,11.87,3.42,0,6.39-.34,9.7-.91v-18.15h-.46c-1.03.23-1.94.34-3.08.34ZM127.52,52.17c0,9.48-7.19,15.98-17.58,15.98-6.28,0-10.27-2.63-10.27-8.22,0-5.94,3.65-8.56,13.02-9.48l14.84-1.37v3.08Z"/>
  <path class="cls-1" d="M187.91,15.07h-.46V1.71h-21.81v82.77h23.4v-39.39c0-15.07,7.53-22.72,20.44-22.72,2.74,0,4.91.34,7.31,1.03h.46V1.14c-2.17-.8-4.57-1.14-7.19-1.14-9.82,0-17.01,4.68-22.15,15.07Z"/>
  <path class="cls-1" d="M259.61,66.44c-8.79,0-12.33-2.85-12.33-13.02V1.71h-23.4v54.11c0,21.23,10.62,30.37,30.94,30.37,7.88,0,15.64-1.37,24.43-4.34v-18.95h-.46c-6.39,2.17-13.02,3.54-19.18,3.54Z"/>
  <path class="cls-1" d="M304.02,20.55h13.47v37.45c0,20.32,7.88,28.2,27.86,28.2,7.42,0,15.3-1.03,21.69-2.97v-18.84h-.46c-4.22,1.26-8.79,2.06-13.36,2.06-8.9,0-12.33-2.97-12.33-11.99V20.55h27.74V1.71h-64.62v18.84Z"/>
  <path class="cls-1" d="M411.79,0c-25.69,0-41.33,18.27-41.33,43.04s15.64,43.15,41.33,43.15,41.33-18.38,41.33-43.15S437.48,0,411.79,0ZM411.79,67.36c-11.53,0-16.9-10.5-16.9-24.32s5.37-24.2,16.9-24.2,16.9,10.39,16.9,24.2-5.37,24.32-16.9,24.32Z"/>
  <polygon class="cls-1" points="460.88 84.48 484.28 84.48 484.28 54.69 516.48 54.69 516.48 36.42 484.28 36.42 484.28 19.98 519.44 19.98 519.44 1.71 460.88 1.71 460.88 84.48"/>
  <polygon class="cls-1" points="528.23 84.48 551.64 84.48 551.64 54.69 583.83 54.69 583.83 36.42 551.64 36.42 551.64 19.98 586.8 19.98 586.8 1.71 528.23 1.71 528.23 84.48"/>
  <path class="cls-1" d="M632.47,0c-26.37,0-41.67,17.7-41.67,43.04s15.3,43.15,41.67,43.15c20.55,0,34.82-11.19,37.9-29.91h-23.63c-1.6,7.76-6.74,11.99-14.73,11.99-10.05,0-15.18-7.19-16.44-19.75h55.48c.91-30.94-13.13-48.52-38.59-48.52ZM616.37,31.97c2.28-8.9,7.88-14.04,16.1-14.04s13.13,4.79,14.61,14.04h-30.71Z"/>
  <path class="cls-1" d="M734.19,62.91c-6.39,2.17-13.02,3.54-19.18,3.54-8.79,0-12.33-2.85-12.33-13.02V1.71h-23.4v54.11c0,21.23,10.62,30.37,30.94,30.37,7.88,0,15.64-1.37,24.43-4.34v-18.95h-.46Z"/>
  <path class="cls-1" d="M284.72,8.53l-4.05-6.81h-15.15s-2.72,4.06-2.72,4.06c-1.03,1.52-1.97,3.02-2.92,4.59l.55,12.44,3.35,1.69,11.97,6.01,5.76,2.9,8.37-1.83,3.72-4.76v-11.19s-7.77-5.21-7.77-5.21l-1.12-1.88Z"/>
</svg>